# This file uses centimeters as units for non-parametric coordinates.

mtllib cube2.mtl
g default
v -0.500000 -0.450005 0.450005
v -0.485357 -0.485357 0.450005
v -0.450005 -0.500000 0.450005
v -0.450005 -0.485357 0.485357
v -0.450005 -0.450005 0.500000
v -0.485357 -0.450005 0.485357
v 0.450005 -0.500000 0.450005
v 0.485357 -0.485357 0.450005
v 0.500000 -0.450005 0.450005
v 0.485357 -0.450005 0.485357
v 0.450005 -0.450005 0.500000
v 0.450005 -0.485357 0.485357
v -0.450005 0.500000 0.450005
v -0.485357 0.485357 0.450005
v -0.500000 0.450005 0.450005
v -0.485357 0.450005 0.485357
v -0.450005 0.450005 0.500000
v -0.450005 0.485357 0.485357
v 0.500000 0.450005 0.450005
v 0.485357 0.485357 0.450005
v 0.450005 0.500000 0.450005
v 0.450005 0.485357 0.485357
v 0.450005 0.450005 0.500000
v 0.485357 0.450005 0.485357
v -0.450005 0.450005 -0.500000
v -0.485357 0.450005 -0.485357
v -0.500000 0.450005 -0.450005
v -0.485357 0.485357 -0.450005
v -0.450005 0.500000 -0.450005
v -0.450005 0.485357 -0.485357
v 0.500000 0.450005 -0.450005
v 0.485357 0.450005 -0.485357
v 0.450005 0.450005 -0.500000
v 0.450005 0.485357 -0.485357
v 0.450005 0.500000 -0.450005
v 0.485357 0.485357 -0.450005
v -0.450005 -0.500000 -0.450005
v -0.485357 -0.485357 -0.450005
v -0.500000 -0.450005 -0.450005
v -0.485357 -0.450005 -0.485357
v -0.450005 -0.450005 -0.500000
v -0.450005 -0.485357 -0.485357
v 0.500000 -0.450005 -0.450005
v 0.485357 -0.485357 -0.450005
v 0.450005 -0.500000 -0.450005
v 0.450005 -0.485357 -0.485357
v 0.450005 -0.450005 -0.500000
v 0.485357 -0.450005 -0.485357
v -0.478454 -0.478454 0.478454
v 0.478454 -0.478454 0.478454
v -0.478454 0.478454 0.478454
v 0.478454 0.478454 0.478454
v -0.478454 0.478454 -0.478454
v 0.478454 0.478454 -0.478454
v -0.478454 -0.478454 -0.478454
v 0.478454 -0.478454 -0.478454
vt 0.260414 0.758506
vt 0.489996 0.758274
vt 0.490267 0.988064
vt 0.260398 0.987964
vt 0.489715 0.011527
vt 0.489560 0.241148
vt 0.260289 0.241132
vt 0.259878 0.011918
vt 0.240998 0.241566
vt 0.011422 0.241825
vt 0.010861 0.012053
vt 0.240549 0.011958
vt 0.738735 0.011545
vt 0.738426 0.241417
vt 0.508842 0.241510
vt 0.509054 0.011605
vt 0.489888 0.260405
vt 0.489889 0.489974
vt 0.260231 0.490113
vt 0.259980 0.260399
vt 0.489898 0.509334
vt 0.489990 0.738922
vt 0.260402 0.739135
vt 0.260239 0.509476
vt 0.250642 0.988491
vt 0.250710 0.757940
vt 0.241100 0.002253
vt 0.010333 0.002298
vt 0.259278 0.002175
vt 0.490302 0.001828
vt 0.259855 0.997676
vt 0.490822 0.997819
vt 0.250212 0.011900
vt 0.250673 0.241452
vt 0.508473 0.001859
vt 0.739268 0.001832
vt 0.499980 0.988597
vt 0.499740 0.757680
vt 0.499388 0.011530
vt 0.499169 0.241430
vt 0.241393 0.251346
vt 0.010883 0.251537
vt 0.250230 0.260061
vt 0.250496 0.490694
vt 0.260039 0.250737
vt 0.489820 0.250750
vt 0.499669 0.260052
vt 0.499593 0.490546
vt 0.508479 0.251259
vt 0.738954 0.251164
vt 0.001665 0.242381
vt 0.001150 0.011510
vt 0.250536 0.508913
vt 0.250658 0.739713
vt 0.260192 0.499793
vt 0.489937 0.499655
vt 0.499642 0.508759
vt 0.499694 0.739487
vt 0.748138 0.241961
vt 0.748490 0.010991
vt 0.260365 0.748819
vt 0.490036 0.748600
vt 0.250192 0.003699
vt 0.251932 0.996403
vt 0.498723 0.996521
vt 0.499393 0.003328
vt 0.250917 0.250570
vt 0.498946 0.250550
vt 0.251994 0.499802
vt 0.002962 0.250280
vt 0.746865 0.249878
vt 0.498137 0.499653
vt 0.252164 0.748823
vt 0.002422 0.003588
vt 0.747192 0.003090
vt 0.498237 0.748588
vn -0.015460 -0.999761 -0.015460
vn 0.015460 -0.999761 -0.015460
vn 0.015460 -0.999761 0.015460
vn -0.015460 -0.999761 0.015460
vn 0.015460 -0.015460 0.999761
vn 0.015460 0.015460 0.999761
vn -0.015460 0.015460 0.999761
vn -0.015460 -0.015460 0.999761
vn -0.999761 0.015460 0.015460
vn -0.999761 0.015460 -0.015460
vn -0.999761 -0.015460 -0.015460
vn -0.999761 -0.015460 0.015460
vn 0.999761 -0.015460 -0.015460
vn 0.999761 0.015460 -0.015460
vn 0.999761 0.015460 0.015460
vn 0.999761 -0.015460 0.015460
vn 0.015460 0.999761 0.015460
vn 0.015460 0.999761 -0.015460
vn -0.015460 0.999761 -0.015460
vn -0.015460 0.999761 0.015460
vn 0.015460 0.015460 -0.999761
vn 0.015460 -0.015460 -0.999761
vn -0.015460 -0.015460 -0.999761
vn -0.015460 0.015460 -0.999761
vn -0.381872 -0.924162 0.009897
vn -0.381872 -0.924162 -0.009897
vn -0.924162 -0.381872 0.009897
vn -0.924162 -0.381872 -0.009897
vn -0.009897 -0.381872 0.924162
vn 0.009897 -0.381872 0.924162
vn -0.009897 -0.924162 0.381872
vn 0.009897 -0.924162 0.381872
vn -0.924162 -0.009897 0.381872
vn -0.924162 0.009897 0.381872
vn -0.381872 -0.009897 0.924162
vn -0.381872 0.009897 0.924162
vn 0.924162 -0.381872 0.009897
vn 0.924162 -0.381872 -0.009897
vn 0.381872 -0.924162 0.009897
vn 0.381872 -0.924162 -0.009897
vn 0.381872 -0.009897 0.924162
vn 0.381872 0.009897 0.924162
vn 0.924162 -0.009897 0.381872
vn 0.924162 0.009897 0.381872
vn -0.924162 0.381872 0.009897
vn -0.924162 0.381872 -0.009897
vn -0.381872 0.924162 0.009897
vn -0.381872 0.924162 -0.009897
vn -0.009897 0.924162 0.381872
vn 0.009897 0.924162 0.381872
vn -0.009897 0.381872 0.924162
vn 0.009897 0.381872 0.924162
vn 0.381872 0.924162 0.009897
vn 0.381872 0.924162 -0.009897
vn 0.924162 0.381872 0.009897
vn 0.924162 0.381872 -0.009897
vn -0.924162 0.009897 -0.381872
vn -0.924162 -0.009897 -0.381872
vn -0.381872 0.009897 -0.924162
vn -0.381872 -0.009897 -0.924162
vn -0.009897 0.381872 -0.924162
vn 0.009897 0.381872 -0.924162
vn -0.009897 0.924162 -0.381872
vn 0.009897 0.924162 -0.381872
vn 0.381872 0.009897 -0.924162
vn 0.381872 -0.009897 -0.924162
vn 0.924162 0.009897 -0.381872
vn 0.924162 -0.009897 -0.381872
vn -0.009897 -0.924162 -0.381872
vn 0.009897 -0.924162 -0.381872
vn -0.009897 -0.381872 -0.924162
vn 0.009897 -0.381872 -0.924162
vn -0.881546 -0.333824 0.333824
vn -0.333824 -0.881546 0.333824
vn -0.333824 -0.333824 0.881546
vn 0.333824 -0.881546 0.333824
vn 0.881546 -0.333824 0.333824
vn 0.333824 -0.333824 0.881546
vn -0.333824 0.881546 0.333824
vn -0.881546 0.333824 0.333824
vn -0.333824 0.333824 0.881546
vn 0.881546 0.333824 0.333824
vn 0.333824 0.881546 0.333824
vn 0.333824 0.333824 0.881546
vn -0.333824 0.333824 -0.881546
vn -0.881546 0.333824 -0.333824
vn -0.333824 0.881546 -0.333824
vn 0.881546 0.333824 -0.333824
vn 0.333824 0.333824 -0.881546
vn 0.333824 0.881546 -0.333824
vn -0.333824 -0.881546 -0.333824
vn -0.881546 -0.333824 -0.333824
vn -0.333824 -0.333824 -0.881546
vn 0.881546 -0.333824 -0.333824
vn 0.333824 -0.881546 -0.333824
vn 0.333824 -0.333824 -0.881546
s 1
g Cube
usemtl blinn1SG
f 37/1/1 45/2/2 7/3/3 3/4/4
s 2
f 11/5/5 23/6/6 17/7/7 5/8/8
s 3
f 15/9/9 27/10/10 39/11/11 1/12/12
s 4
f 43/13/13 31/14/14 19/15/15 9/16/16
s 5
f 21/17/17 35/18/18 29/19/19 13/20/20
s 6
f 33/21/21 47/22/22 41/23/23 25/24/24
s 1
f 3/4/4 2/25/25 38/26/26 37/1/1
s 3
f 2/27/27 1/12/12 39/11/11 38/28/28
s 2
f 5/8/8 4/29/29 12/30/30 11/5/5
s 1
f 4/31/31 3/4/4 7/3/3 12/32/32
s 3
f 1/12/12 6/33/33 16/34/34 15/9/9
s 2
f 6/33/35 5/8/8 17/7/7 16/34/36
s 4
f 9/16/16 8/35/37 44/36/38 43/13/13
s 1
f 8/37/39 7/3/3 45/2/2 44/38/40
s 2
f 11/5/5 10/39/41 24/40/42 23/6/6
s 4
f 10/39/43 9/16/16 19/15/15 24/40/44
s 3
f 15/9/9 14/41/45 28/42/46 27/10/10
s 5
f 14/43/47 13/20/20 29/19/19 28/44/48
f 13/20/20 18/45/49 22/46/50 21/17/17
s 2
f 18/45/51 17/7/7 23/6/6 22/46/52
s 5
f 21/17/17 20/47/53 36/48/54 35/18/18
s 4
f 20/49/55 19/15/15 31/14/14 36/50/56
s 3
f 27/10/10 26/51/57 40/52/58 39/11/11
s 6
f 26/53/59 25/24/24 41/23/23 40/54/60
f 25/24/24 30/55/61 34/56/62 33/21/21
s 5
f 30/55/63 29/19/19 35/18/18 34/56/64
s 6
f 33/21/21 32/57/65 48/58/66 47/22/22
s 4
f 32/59/67 31/14/14 43/13/13 48/60/68
s 1
f 37/1/1 42/61/69 46/62/70 45/2/2
s 6
f 42/61/71 41/23/23 47/22/22 46/62/72
s 3
f 6/33/33 1/12/12 2/27/27 49/63/73
s 1
f 2/25/25 3/4/4 4/31/31 49/64/74
s 2
f 4/29/29 5/8/8 6/33/35 49/63/75
s 1
f 12/32/32 7/3/3 8/37/39 50/65/76
s 4
f 8/35/37 9/16/16 10/39/43 50/66/77
s 2
f 10/39/41 11/5/5 12/30/30 50/66/78
s 5
f 18/45/49 13/20/20 14/43/47 51/67/79
s 3
f 14/41/45 15/9/9 16/34/34 51/67/80
s 2
f 16/34/36 17/7/7 18/45/51 51/67/81
s 4
f 24/40/44 19/15/15 20/49/55 52/68/82
s 5
f 20/47/53 21/17/17 22/46/50 52/68/83
s 2
f 22/46/52 23/6/6 24/40/42 52/68/84
s 6
f 30/55/61 25/24/24 26/53/59 53/69/85
s 3
f 26/51/57 27/10/10 28/42/46 53/70/86
s 5
f 28/44/48 29/19/19 30/55/63 53/69/87
s 4
f 36/50/56 31/14/14 32/59/67 54/71/88
s 6
f 32/57/65 33/21/21 34/56/62 54/72/89
s 5
f 34/56/64 35/18/18 36/48/54 54/72/90
s 1
f 42/61/69 37/1/1 38/26/26 55/73/91
s 3
f 38/28/28 39/11/11 40/52/58 55/74/92
s 6
f 40/54/60 41/23/23 42/61/71 55/73/93
s 4
f 48/60/68 43/13/13 44/36/38 56/75/94
s 1
f 44/38/40 45/2/2 46/62/70 56/76/95
s 6
f 46/62/72 47/22/22 48/58/66 56/76/96
